<svg xmlns="http://www.w3.org/2000/svg" viewBox="0 0 64 64">
  <path d="M6.4 27.5 A26 26 0 0 1 29.7 6.1" fill="none" stroke="#1e8e89" stroke-width="5" stroke-linecap="round"/>
  <path d="M34.3 6.1 A26 26 0 0 1 57.6 27.5" fill="none" stroke="#67b7d1" stroke-width="5" stroke-linecap="round"/>
  <path d="M56.4 40.9 A26 26 0 0 1 7.6 40.9" fill="none" stroke="#c95b5b" stroke-width="5" stroke-linecap="round"/>
  <circle cx="6" cy="32" r="4.5" fill="#1e8e89"/>
  <circle cx="58" cy="32" r="4.5" fill="#67b7d1"/>
  <circle cx="32" cy="58" r="4.5" fill="#c95b5b"/>
  <path d="M32 14c-7.7 0-14 6-14 13.4 0 9.8 14 21.6 14 21.6s14-11.8 14-21.6C46 20 39.7 14 32 14z" fill="#17375e"/>
  <circle cx="32" cy="27.5" r="5" fill="#f7f7f2"/>
</svg>
